G04 #@! TF.FileFunction,Legend,Bot*
%FSLAX46Y46*%
G04 Gerber Fmt 4.6, Leading zero omitted, Abs format (unit mm)*
G04 Created by KiCad (PCBNEW 4.0.2-stable) date 10/06/2016 19:55:33*
%MOMM*%
G01*
G04 APERTURE LIST*
%ADD10C,0.150000*%
%ADD11C,0.300000*%
G04 APERTURE END LIST*
D10*
D11*
X218072571Y-137771571D02*
X218072571Y-136271571D01*
X217572571Y-137343000D01*
X217072571Y-136271571D01*
X217072571Y-137771571D01*
X215715428Y-137771571D02*
X215715428Y-136985857D01*
X215786857Y-136843000D01*
X215929714Y-136771571D01*
X216215428Y-136771571D01*
X216358285Y-136843000D01*
X215715428Y-137700143D02*
X215858285Y-137771571D01*
X216215428Y-137771571D01*
X216358285Y-137700143D01*
X216429714Y-137557286D01*
X216429714Y-137414429D01*
X216358285Y-137271571D01*
X216215428Y-137200143D01*
X215858285Y-137200143D01*
X215715428Y-137128714D01*
X215001142Y-137771571D02*
X215001142Y-136771571D01*
X215001142Y-136271571D02*
X215072571Y-136343000D01*
X215001142Y-136414429D01*
X214929714Y-136343000D01*
X215001142Y-136271571D01*
X215001142Y-136414429D01*
X214286856Y-136771571D02*
X214286856Y-137771571D01*
X214286856Y-136914429D02*
X214215428Y-136843000D01*
X214072570Y-136771571D01*
X213858285Y-136771571D01*
X213715428Y-136843000D01*
X213643999Y-136985857D01*
X213643999Y-137771571D01*
X213001142Y-137700143D02*
X212858285Y-137771571D01*
X212572570Y-137771571D01*
X212429713Y-137700143D01*
X212358285Y-137557286D01*
X212358285Y-137485857D01*
X212429713Y-137343000D01*
X212572570Y-137271571D01*
X212786856Y-137271571D01*
X212929713Y-137200143D01*
X213001142Y-137057286D01*
X213001142Y-136985857D01*
X212929713Y-136843000D01*
X212786856Y-136771571D01*
X212572570Y-136771571D01*
X212429713Y-136843000D01*
X210072570Y-136985857D02*
X210572570Y-136985857D01*
X210572570Y-137771571D02*
X210572570Y-136271571D01*
X209858284Y-136271571D01*
X209286856Y-137771571D02*
X209286856Y-136771571D01*
X209286856Y-137057286D02*
X209215428Y-136914429D01*
X209143999Y-136843000D01*
X209001142Y-136771571D01*
X208858285Y-136771571D01*
X207786857Y-137700143D02*
X207929714Y-137771571D01*
X208215428Y-137771571D01*
X208358285Y-137700143D01*
X208429714Y-137557286D01*
X208429714Y-136985857D01*
X208358285Y-136843000D01*
X208215428Y-136771571D01*
X207929714Y-136771571D01*
X207786857Y-136843000D01*
X207715428Y-136985857D01*
X207715428Y-137128714D01*
X208429714Y-137271571D01*
X206429714Y-136771571D02*
X206429714Y-138271571D01*
X206429714Y-137700143D02*
X206572571Y-137771571D01*
X206858285Y-137771571D01*
X207001143Y-137700143D01*
X207072571Y-137628714D01*
X207144000Y-137485857D01*
X207144000Y-137057286D01*
X207072571Y-136914429D01*
X207001143Y-136843000D01*
X206858285Y-136771571D01*
X206572571Y-136771571D01*
X206429714Y-136843000D01*
X205072571Y-136771571D02*
X205072571Y-137771571D01*
X205715428Y-136771571D02*
X205715428Y-137557286D01*
X205644000Y-137700143D01*
X205501142Y-137771571D01*
X205286857Y-137771571D01*
X205144000Y-137700143D01*
X205072571Y-137628714D01*
X203786857Y-137700143D02*
X203929714Y-137771571D01*
X204215428Y-137771571D01*
X204358285Y-137700143D01*
X204429714Y-137557286D01*
X204429714Y-136985857D01*
X204358285Y-136843000D01*
X204215428Y-136771571D01*
X203929714Y-136771571D01*
X203786857Y-136843000D01*
X203715428Y-136985857D01*
X203715428Y-137128714D01*
X204429714Y-137271571D01*
X203072571Y-136771571D02*
X203072571Y-137771571D01*
X203072571Y-136914429D02*
X203001143Y-136843000D01*
X202858285Y-136771571D01*
X202644000Y-136771571D01*
X202501143Y-136843000D01*
X202429714Y-136985857D01*
X202429714Y-137771571D01*
X201072571Y-137700143D02*
X201215428Y-137771571D01*
X201501142Y-137771571D01*
X201644000Y-137700143D01*
X201715428Y-137628714D01*
X201786857Y-137485857D01*
X201786857Y-137057286D01*
X201715428Y-136914429D01*
X201644000Y-136843000D01*
X201501142Y-136771571D01*
X201215428Y-136771571D01*
X201072571Y-136843000D01*
X200572571Y-136771571D02*
X200215428Y-137771571D01*
X199858286Y-136771571D02*
X200215428Y-137771571D01*
X200358286Y-138128714D01*
X200429714Y-138200143D01*
X200572571Y-138271571D01*
X205358285Y-140171571D02*
X205358285Y-138671571D01*
X204858285Y-139743000D01*
X204358285Y-138671571D01*
X204358285Y-140171571D01*
X203072571Y-140100143D02*
X203215428Y-140171571D01*
X203501142Y-140171571D01*
X203643999Y-140100143D01*
X203715428Y-139957286D01*
X203715428Y-139385857D01*
X203643999Y-139243000D01*
X203501142Y-139171571D01*
X203215428Y-139171571D01*
X203072571Y-139243000D01*
X203001142Y-139385857D01*
X203001142Y-139528714D01*
X203715428Y-139671571D01*
X202572571Y-139171571D02*
X202001142Y-139171571D01*
X202358285Y-138671571D02*
X202358285Y-139957286D01*
X202286857Y-140100143D01*
X202143999Y-140171571D01*
X202001142Y-140171571D01*
X200929714Y-140100143D02*
X201072571Y-140171571D01*
X201358285Y-140171571D01*
X201501142Y-140100143D01*
X201572571Y-139957286D01*
X201572571Y-139385857D01*
X201501142Y-139243000D01*
X201358285Y-139171571D01*
X201072571Y-139171571D01*
X200929714Y-139243000D01*
X200858285Y-139385857D01*
X200858285Y-139528714D01*
X201572571Y-139671571D01*
X200215428Y-140171571D02*
X200215428Y-139171571D01*
X200215428Y-139457286D02*
X200144000Y-139314429D01*
X200072571Y-139243000D01*
X199929714Y-139171571D01*
X199786857Y-139171571D01*
X204143999Y-141571571D02*
X203786856Y-142571571D01*
X203429714Y-141571571D01*
X202072571Y-142571571D02*
X202929714Y-142571571D01*
X202501142Y-142571571D02*
X202501142Y-141071571D01*
X202643999Y-141285857D01*
X202786857Y-141428714D01*
X202929714Y-141500143D01*
X201429714Y-142428714D02*
X201358286Y-142500143D01*
X201429714Y-142571571D01*
X201501143Y-142500143D01*
X201429714Y-142428714D01*
X201429714Y-142571571D01*
X200786857Y-141214429D02*
X200715428Y-141143000D01*
X200572571Y-141071571D01*
X200215428Y-141071571D01*
X200072571Y-141143000D01*
X200001142Y-141214429D01*
X199929714Y-141357286D01*
X199929714Y-141500143D01*
X200001142Y-141714429D01*
X200858285Y-142571571D01*
X199929714Y-142571571D01*
D10*
X205232000Y-160194000D02*
X197612000Y-160194000D01*
X197612000Y-160194000D02*
X197612000Y-155114000D01*
X197612000Y-155114000D02*
X205232000Y-155114000D01*
X205232000Y-155114000D02*
X205232000Y-160194000D01*
X208500000Y-163004000D02*
X210100000Y-164604000D01*
X208500000Y-168804000D02*
X210100000Y-167204000D01*
X199900000Y-163004000D02*
X199900000Y-168804000D01*
X208500000Y-163004000D02*
X199900000Y-163004000D01*
X210100000Y-167204000D02*
X210100000Y-164604000D01*
X199900000Y-168804000D02*
X208500000Y-168804000D01*
X202183905Y-153296381D02*
X202183905Y-154105905D01*
X202136286Y-154201143D01*
X202088667Y-154248762D01*
X201993429Y-154296381D01*
X201802952Y-154296381D01*
X201707714Y-154248762D01*
X201660095Y-154201143D01*
X201612476Y-154105905D01*
X201612476Y-153296381D01*
X201183905Y-153391619D02*
X201136286Y-153344000D01*
X201041048Y-153296381D01*
X200802952Y-153296381D01*
X200707714Y-153344000D01*
X200660095Y-153391619D01*
X200612476Y-153486857D01*
X200612476Y-153582095D01*
X200660095Y-153724952D01*
X201231524Y-154296381D01*
X200612476Y-154296381D01*
X210819905Y-162515381D02*
X210819905Y-163324905D01*
X210772286Y-163420143D01*
X210724667Y-163467762D01*
X210629429Y-163515381D01*
X210438952Y-163515381D01*
X210343714Y-163467762D01*
X210296095Y-163420143D01*
X210248476Y-163324905D01*
X210248476Y-162515381D01*
X209867524Y-162515381D02*
X209248476Y-162515381D01*
X209581810Y-162896333D01*
X209438952Y-162896333D01*
X209343714Y-162943952D01*
X209296095Y-162991571D01*
X209248476Y-163086810D01*
X209248476Y-163324905D01*
X209296095Y-163420143D01*
X209343714Y-163467762D01*
X209438952Y-163515381D01*
X209724667Y-163515381D01*
X209819905Y-163467762D01*
X209867524Y-163420143D01*
M02*
