M48
;DRILL file {KiCad 4.0.2-stable} date 17/06/2016 14:35:23
;FORMAT={-:-/ absolute / inch / decimal}
FMAT,2
INCH,TZ
T1C0.025
T2C0.031
T3C0.032
T4C0.035
T5C0.039
T6C0.039
T7C0.040
T8C0.047
T9C0.050
T10C0.039
T11C0.098
T12C0.150
%
G90
G05
M72
T1
X7.81Y-5.8269
X7.96Y-5.8069
X8.05Y-5.8069
X8.115Y-5.9419
T2
X7.2016Y-5.5169
X7.3Y-5.5169
X7.44Y-5.6769
X7.4616Y-6.4169
X7.5384Y-5.6769
X7.6584Y-6.4169
X7.79Y-5.9169
X7.8244Y-6.0568
X7.8244Y-6.3568
X7.9244Y-6.0568
X7.9244Y-6.3568
X7.9869Y-5.9169
X8.0244Y-6.0568
X8.0244Y-6.3568
X8.1244Y-6.0568
X8.1244Y-6.3568
X8.2244Y-6.0568
X8.2244Y-6.3568
X8.3244Y-6.0568
X8.3244Y-6.3568
X8.4244Y-6.0568
X8.4244Y-6.3568
X8.61Y-5.6169
X8.61Y-5.7169
X8.61Y-5.8169
X8.61Y-5.9169
X8.61Y-6.0169
X8.61Y-6.1169
X8.61Y-6.2169
X8.61Y-6.3169
X8.885Y-5.2497
X8.885Y-5.4466
X8.91Y-5.6169
X8.91Y-5.7169
X8.91Y-5.8169
X8.91Y-5.9169
X8.91Y-6.0169
X8.91Y-6.1169
X8.91Y-6.2169
X8.91Y-6.3169
T3
X7.235Y-6.2419
X7.235Y-6.3419
X7.335Y-6.3419
T4
X8.685Y-4.97
X8.685Y-5.0684
X8.685Y-5.1669
X8.685Y-5.2653
X8.685Y-5.3637
T5
X7.9626Y-6.4817
X7.9626Y-6.5817
X8.1791Y-6.4817
X8.1791Y-6.5817
T6
X7.185Y-5.8669
X7.185Y-5.9918
X7.41Y-6.5419
X7.585Y-5.8669
X7.585Y-6.117
X7.7006Y-5.445
X7.7006Y-5.545
X7.7006Y-5.645
X7.81Y-6.5419
X7.9301Y-4.8119
X8.1002Y-4.8119
X8.265Y-5.2169
X8.36Y-6.4919
X8.36Y-6.6169
X8.43Y-5.2219
X8.76Y-6.4919
X8.76Y-6.6169
T7
X8.21Y-5.8419
X8.21Y-5.9419
X8.31Y-5.8419
X8.31Y-5.9419
X8.41Y-5.8419
X8.41Y-5.9419
T8
X7.435Y-5.0669
X7.435Y-5.2669
T9
X7.185Y-6.117
X7.585Y-5.9918
X7.9301Y-5.2119
X8.1002Y-5.2119
X8.265Y-4.8169
X8.43Y-4.8219
T10
X7.8878Y-6.4352
T11
X8.0709Y-6.4569
X8.0709Y-6.6065
T12
X8.3606Y-5.545
T3
X7.545Y-5.1314G85X7.545Y-5.2023
G05
X7.6905Y-5.3419G85X7.6196Y-5.3419
G05
X7.785Y-5.1228G85X7.785Y-5.211
G05
T0
M30
